<?xml version="1.0" encoding="utf-8"?>
<!-- Generator: Adobe Illustrator 23.0.3, SVG Export Plug-In . SVG Version: 6.00 Build 0)  -->
<svg version="1.1" xmlns="http://www.w3.org/2000/svg" xmlns:xlink="http://www.w3.org/1999/xlink" x="0px" y="0px"
	 viewBox="0 0 595.3 841.9" style="enable-background:new 0 0 595.3 841.9;" xml:space="preserve">
<style type="text/css">
	.st0{display:none;}
	.st1{display:inline;}
	.st2{fill:#B9B9BA;}
	.st3{fill:#FFFFFF;}
</style>
<g id="Слой_1" class="st0">
	<g class="st1">
		
			<image style="overflow:visible;enable-background:new    ;" width="720" height="1280" xlink:href="photo_2020-03-30_08-28-11.jpg"  transform="matrix(1 0 0 1 -62 -219.1102)">
		</image>
	</g>
	<g id="Слой_6" class="st1">
		<rect x="-27.3" y="18" width="622.6" height="831.7"/>
	</g>
	<g id="Слой_4" class="st1">
	</g>
	<g id="Слой_3" class="st1">
		<g>
			<path class="st2" d="M354.5,253.1c4.2,2,8.9,3.3,16.5,11.5s17.8,30.7,17.6,44.3c-0.2,13.2,0.4,4.8-1.2,3.7
				c-2,0-6.8,21.4-6.8,21.4c-2.9,8.2,2.4,7.5-0.2,7.5c-7,0-6.7,13.9-7.5,16.8c0-8.2-5.5-7.9-28.1,7.4c-5,3.4,5.5,4.3-10.9,1.4
				c-12.4-2.2-18.7,10.9-18.7,10.9c1.9-3.1-0.1-25.8,0.7-24.2c2.7,5.1,4.5-2.3,4.1-4.6c-1.6-7.7,5.3-21,5.3-21
				c-1.8,8-2,10.4-0.6,10.4c3.2,0.1,7.2-5.2,7.3-6c0.7-13.3,9.3-15.9,13-20.7c8.6-11.2,9.7-20.9,9.7-20.9c0.9,4,2.4,5.6,2.4,5.6
				s2.7-4.8,2.7-15.6c0-11.4-8.6-23.9-10-20c-0.2,0.6-2.9-5.2-7.4-5.9C334.6,254.2,354.5,253.1,354.5,253.1z"/>
			<path class="st2" d="M310.3,363.5L300,350.7l10.4,27.3c-13.9-14.5-29.4-12-33.6-12.8c-0.7-0.1,2.5-1.7,2.5-1.7s-12.5-4.5-19-13.8
				c-9.9-14.1-5.2,5.9-5.2,5.9c-22.3-26.6-12-42.4-12-42.4c-6.4-1.4-7.1,6.9-7.1,6.9c-2.3-60.1,34.9-67.5,34.2-66.4
				c-2,3.3-11.1,11.9-6.7,22.1c0.8,1.9,2.8,6.3,2.8,6.3c-4.1-7.5-7.4,9.8,3.3,24.7c8.8,12.3,4.2-0.1,7.4,4.2
				c19.3,20.2,22,30.6,22,30.6l-0.7-13.9C303.5,344.8,310.3,363.5,310.3,363.5z"/>
			<path class="st3" d="M290,257c0,0-3.9-1-6-1.5c-0.6-0.2-3.5-0.3-3.5-0.3s-3.3,1.7-8,3.7s-6.6,3.6-6.6,3.6l-2,3.3l-1.5,4.4
				c0.5,4.1,1.2,6,1.2,6l-2.6-2.3c-3.3,13,0.3,20,0.3,20l-2.6-0.3c3.1,8.1,2.7,10,3.8,10.7c1.6,1,12.9,13.3,12.9,13.3
				c3.6,8.9,2,10.3,2,10.3l3.3-5.6c8.6,12.2,12.2,18.1,12.2,18.1c8.8,6.1,14.7,7.7,14.7,7.7c-3.9,1-2.5,5.1-2.5,5.7
				s1.9,19.1,1.9,19.1c-8-6.5-9.8-7.4-9.8-7.4c0.6-3-2.1-2.7-2.1-2.7l-3,1l-7.3-0.5l4.1-2.1c-8.7-1.1-15-1.8-15-1.8l-9.5-6.3
				l4.2,0.2l-4.9-5c-0.7-5.2-3.8-9.2-5.1-10.6c-4.5-5.1-9.1-1.3-8.9,0.4c-2.3-0.3-7.1-15.8-2.2-22.2c3.2-4.2-2.1-7.5-3.1-6.7l5-1.3
				l-6.1-7.6l2.6-12l4.4,2.6l-3.5-6.7c1.8-8.1,7-13.1,7-13.1c0.8,2.3,0.7,5.3,0.7,5.3c1.5-5,1.5-11.6,1.5-11.6
				c6.3-5,13.5-10.8,13.5-10.8c5.7-1.2,11.6-2.9,11.6-2.9l4.5,3L290,257z"/>
			<path class="st3" d="M333.6,257.2l8.7-1.9c0,0,6.3,1.6,7.7,2.2c0.8,0.3,3.2,2.2,4.5,3.6c1.2,1.2,2.1,2.7,2.7,4.2l1.9,4.6
				c0.7-0.1,1.5-1.5,1.3-3.6c4.2,18.4,1.7,24.5,1.7,24.5l2.7,1.2c-2.4,10.9-4.4,14.9-4.4,14.9l-4.4,0.6c-6,13.1-8.9,19-8.9,19
				c-2.9-2.9-3.7-4.5-3.7-4.5c-0.3,4.5-4.9,11.1-5.4,11.7c-2.5,3.3-9.2,6.7-13.3,10.9c-7.1,7.3-3.8-4.9-3.8-4.9
				c-3.8,6.5-2.8,16-2.7,17.1c0.8,7.9-0.9,15.9-0.9,15.9c5.1-5.6,12.1-8.7,12.1-8.7c3.6,0.5,8.1,1.2,8.1,1.2l6.2-2.5l-5.6-2.4
				c22.3-3.1,22.2-11,22-11.5c-2,1.2-3.5,0.6-3.5,0.6c5.3-5,11.7-6.2,11.7-6.2l4.1-8.4c-0.9-7.7,8.3-21.7,8.3-21.7
				c-2.1,0.9-5,0.6-5,0.6c4.9-5.8,5.2-7.5,5.2-7.5s-2.4-15.6-6.8-20.1c-4.1-4.1,6.3,4.7,8.5,11.2c-2.9-15.2-12.6-27.4-12.6-27.4
				c-2.6-4.4,1.2-3.2,1.2-3.2c-10.4-7.4-16.4-14-16.4-14c-8.6-1.1-13.1-2-13.1-2L333.6,257.2z"/>
			<path class="st3" d="M257.8,355.6c5.4,8.2,10.1,11.6,10.1,11.6c0.3,15.3,3.5,25.6,3.5,25.6c-5-6.2-6.6-9.3-7.5-10.8
				s-3.2-4.2-3.2-4.2C258.4,367.4,257.8,355.6,257.8,355.6z"/>
			<path class="st3" d="M271.4,363.5c1.1,1.7,7,6.7,7,6.7c0.7,6.7,1,23.5,1,23.5c-5.3-10.7-6.9-13-6.9-13
				C272.3,373,271.4,363.5,271.4,363.5z"/>
			<path class="st3" d="M263.2,386.6c1.9,2.2,8.1,9.2,8.1,9.2c2.9,8.7,5.9,14.1,5.9,14.1s-0.4-5.4-0.4-6.5c0-0.6-3.4-16.4-3.4-16.4
				c5.9,10.8,8.2,16.5,8.2,16.5l0.7,10.2c4.3,10.8,8.1,18,8.1,18c-11.1-13.2-19.6-24.9-19.1-25.4c0.6-0.8-2.3-7.3-2.7-8.6
				S263.2,386.6,263.2,386.6z"/>
			<path class="st3" d="M281.2,369.6c2.5,1.9,9.3,7.8,9.9,7.2c0.5-0.6-0.1-1.2-0.1-1.2c0.8-0.1,4.3,0.5,4.3,0.5v17.4
				c-3.5-11.9-4.7-12.7-4.7-12.7c-4.4-1.5-5.2-2.2-5.2-2.2s1.8,3.4,1.8,3.7s0.2,5.2,0.2,5.2c1.8-1,2-1.4,2-1.4l2.5,6.9
				c-0.2,3.3,0.4,5.9,0.4,5.9l-8.2-8.2c0-4.9-2.1-8.9-2.2-10.9C281.9,377.5,281.2,369.4,281.2,369.6z"/>
			<path class="st3" d="M284.7,395.2c2.2,4.1,4.7,8.6,4.7,8.6c1.2,5.7,3.9,12.8,3.9,12.8c0-2.1-0.3-11-0.3-11c0.7-1,2.9-5.8,2.9-5.8
				s1.3,16.6,1.6,18.1c0.3,1.5,0,7.2,3.1,15.1c0.7,1.9,1.2,4,1.2,4l-3.2-1.6c-0.7-3.2-4-5.8-4.6-7.8s-7.7-17.7-7.3-19.4
				C287,406.5,284.7,395.2,284.7,395.2z"/>
			<path class="st3" d="M298.4,377.1c0.9,1.2,5,4,5,4c-1.1,1.8,0,12.6,0,12.6c2.2-4.9,5.8-13.1,5.8-13.1c0.7,3,3.8,5.9,3.8,5.9
				c0.5,0.6,0.9,16.2,1.4,27.4c-5.2-6.8-6.1-8-6.1-8c-0.3-11.2-0.2-12.3-0.2-12.3c-2,3.5-2.2,5-2.2,5l0.1,14.2
				c-4.7-7.9-6.2-10.7-6.2-10.7c0.3-5.6,0-11.1-0.7-12.5C298.8,389.1,298.4,377.1,298.4,377.1z"/>
			<path class="st3" d="M299.8,406.5c2.1,8.5,6.6,11.6,6.6,11.6l0.5,22.8c-2-7.9-4.2-11.3-4.4-13c-0.2-1.9-1.3-11.2-1.4-11.9
				C301,415.5,299.8,406.5,299.8,406.5z"/>
			<path class="st3" d="M308.7,409.8c1,5.1,0,5.2,1.9,10.8c0.6,1.8,1.2,6.3,1.4,9.5c0.2,3.1,1.9,11.5,1.9,11.5l0.4-22.4
				C310,412.5,308.7,409.8,308.7,409.8z"/>
			<path class="st3" d="M317.9,412.9c0,0-1-27.8,0-29s10.8-4.4,12.1-5.3c1.3-0.9,2.9-2.9,2.9-2.9c-1.3,12.3-1.9,21.8-1.9,21.8
				c-2.8,7.6-5.8,11.7-5.8,11.7c1.3-17.7,2.1-23.4,2.1-23.4c-4.6,2-4.7,3.4-4.7,3.4c-0.3,9.4-0.5,13.3-0.7,14.4
				C321.6,404.6,317.9,412.9,317.9,412.9z"/>
			<path class="st3" d="M320.6,411.3c0,0.9-2.8,7-2.8,7c0.1,3.2,0.2,15.4,0.2,15.4c1.5,3.5,1.8,7.9,1.8,7.9
				c4.8-12.7,8.9-29.4,8.9-29.4l0.3-5.6c-4.4,6.6-4.5,6.1-4.4,6.6c0.1,0.8-3.2,12.9-3.2,12.9C319.2,423.2,320.6,411.3,320.6,411.3z"
				/>
			<path class="st3" d="M336.9,375.7c3.8,0,7.7-2.4,7.7-2.4l-2.2,7.9c6.8-7,11.4-13.4,11.4-13.4c-0.2,3.6,0,5,0,5
				c14.9-15.8,14.3-15.4,14.3-15.4c-1,14.4-4.4,17.5-4.7,20.4c-0.2,2-0.3,3.7-1.7,5.9s-4.6,7.7-5.5,9.2c-0.8,1.3-6.6,7.3-6.6,7.3
				c5.5-15,6.8-21.5,6.8-21.5c-13,19.8-15.2,23.5-15.2,23.5c2.5-12.8,4.7-17.7,4.7-17.7c-7.8,9.1-7.5,10.6-7.5,10.6
				c0.5,3.6-0.7,4.8-1.8,6.4s-5,8.9-5,8.9c1-3.8,5-24.7,4.6-29.8L336.9,375.7z"/>
			<path class="st3" d="M329.9,414.3c2.6-2.3,6.7-8.9,6.7-8.9s-1.3,7.9-1.3,8.8s-6.6,19.3-6.6,19.3
				C330.3,416.9,329.9,414.3,329.9,414.3z"/>
			<path class="st3" d="M338.1,412c2.2-3.8,8.1-13.1,8.1-13.1c-2.3,12.1-1.6,12.2-3.1,14c-1.6,1.9-5.7,12.2-5.7,12.2
				C337.7,416.6,338.1,412,338.1,412z"/>
			<path class="st3" d="M346.9,405.5c-0.3,5.3-1.7,14.8-1.7,14.8c7.4-14.4,7.8-15.5,7.8-15.5c-1.5-0.1,2.2-7.8,2.2-7.8
				C348.4,404.2,346.9,405.5,346.9,405.5z"/>
		</g>
	</g>
	<g id="Слой_5" class="st1">
	</g>
</g>
<g id="Слой_2">
	<g id="Слой_3_1_">
		<g>
			<path class="st2" d="M345.5,295.1c4.2,2,8.9,3.3,16.5,11.5s17.8,30.7,17.6,44.3c-0.2,13.2,0.4,4.8-1.2,3.7
				c-2,0-6.8,21.4-6.8,21.4c-2.9,8.2,2.4,7.5-0.2,7.5c-7,0-6.7,13.9-7.5,16.8c0-8.2-5.5-7.9-28.1,7.4c-5,3.4,5.5,4.3-10.9,1.4
				c-12.4-2.2-18.7,10.9-18.7,10.9c1.9-3.1-0.1-25.8,0.7-24.2c2.7,5.1,4.5-2.3,4.1-4.6c-1.6-7.7,5.3-21,5.3-21
				c-1.8,8-2,10.4-0.6,10.4c3.2,0.1,7.2-5.2,7.3-6c0.7-13.3,9.3-15.9,13-20.7c8.6-11.2,9.7-20.9,9.7-20.9c0.9,4,2.4,5.6,2.4,5.6
				s2.7-4.8,2.7-15.6c0-11.4-8.6-23.9-10-20c-0.2,0.6-2.9-5.2-7.4-5.9C325.6,296.2,345.5,295.1,345.5,295.1z"/>
			<path class="st2" d="M301.3,405.5L291,392.7l10.4,27.3c-13.9-14.5-29.4-12-33.6-12.8c-0.7-0.1,2.5-1.7,2.5-1.7s-12.5-4.5-19-13.8
				c-9.9-14.1-5.2,5.9-5.2,5.9c-22.3-26.6-12-42.4-12-42.4c-6.4-1.4-7.1,6.9-7.1,6.9c-2.3-60.1,34.9-67.5,34.2-66.4
				c-2,3.3-11.1,11.9-6.7,22.1c0.8,1.9,2.8,6.3,2.8,6.3c-4.1-7.5-7.4,9.8,3.3,24.7c8.8,12.3,4.2-0.1,7.4,4.2
				c19.3,20.2,22,30.6,22,30.6l-0.7-13.9C294.5,386.8,301.3,405.5,301.3,405.5z"/>
			<path class="st3" d="M281,299c0,0-3.9-1-6-1.5c-0.6-0.2-3.5-0.3-3.5-0.3s-3.3,1.7-8,3.7s-6.6,3.6-6.6,3.6l-2,3.3l-1.5,4.4
				c0.5,4.1,1.2,6,1.2,6l-2.6-2.3c-3.3,13,0.3,20,0.3,20l-2.6-0.3c3.1,8.1,2.7,10,3.8,10.7c1.6,1,12.9,13.3,12.9,13.3
				c3.6,8.9,2,10.3,2,10.3l3.3-5.6c8.6,12.2,12.2,18.1,12.2,18.1c8.8,6.1,14.7,7.7,14.7,7.7c-3.9,1-2.5,5.1-2.5,5.7
				s1.9,19.1,1.9,19.1c-8-6.5-9.8-7.4-9.8-7.4c0.6-3-2.1-2.7-2.1-2.7l-3,1l-7.3-0.5l4.1-2.1c-8.7-1.1-15-1.8-15-1.8l-9.5-6.3
				l4.2,0.2l-4.9-5c-0.7-5.2-3.8-9.2-5.1-10.6c-4.5-5.1-9.1-1.3-8.9,0.4c-2.3-0.3-7.1-15.8-2.2-22.2c3.2-4.2-2.1-7.5-3.1-6.7l5-1.3
				l-6.1-7.6l2.6-12l4.4,2.6l-3.5-6.7c1.8-8.1,7-13.1,7-13.1c0.8,2.3,0.7,5.3,0.7,5.3c1.5-5,1.5-11.6,1.5-11.6
				c6.3-5,13.5-10.8,13.5-10.8c5.7-1.2,11.6-2.9,11.6-2.9l4.5,3L281,299z"/>
			<path class="st3" d="M324.6,299.2l8.7-1.9c0,0,6.3,1.6,7.7,2.2c0.8,0.3,3.2,2.2,4.5,3.6c1.2,1.2,2.1,2.7,2.7,4.2l1.9,4.6
				c0.7-0.1,1.5-1.5,1.3-3.6c4.2,18.4,1.7,24.5,1.7,24.5l2.7,1.2c-2.4,10.9-4.4,14.9-4.4,14.9l-4.4,0.6c-6,13.1-8.9,19-8.9,19
				c-2.9-2.9-3.7-4.5-3.7-4.5c-0.3,4.5-4.9,11.1-5.4,11.7c-2.5,3.3-9.2,6.7-13.3,10.9c-7.1,7.3-3.8-4.9-3.8-4.9
				c-3.8,6.5-2.8,16-2.7,17.1c0.8,7.9-0.9,15.9-0.9,15.9c5.1-5.6,12.1-8.7,12.1-8.7c3.6,0.5,8.1,1.2,8.1,1.2l6.2-2.5l-5.6-2.4
				c22.3-3.1,22.2-11,22-11.5c-2,1.2-3.5,0.6-3.5,0.6c5.3-5,11.7-6.2,11.7-6.2l4.1-8.4c-0.9-7.7,8.3-21.7,8.3-21.7
				c-2.1,0.9-5,0.6-5,0.6c4.9-5.8,5.2-7.5,5.2-7.5s-2.4-15.6-6.8-20.1c-4.1-4.1,6.3,4.7,8.5,11.2c-2.9-15.2-12.6-27.4-12.6-27.4
				c-2.6-4.4,1.2-3.2,1.2-3.2c-10.4-7.4-16.4-14-16.4-14c-8.6-1.1-13.1-2-13.1-2L324.6,299.2z"/>
			<path class="st3" d="M248.8,397.6c5.4,8.2,10.1,11.6,10.1,11.6c0.3,15.3,3.5,25.6,3.5,25.6c-5-6.2-6.6-9.3-7.5-10.8
				s-3.2-4.2-3.2-4.2C249.4,409.4,248.8,397.6,248.8,397.6z"/>
			<path class="st3" d="M262.4,405.5c1.1,1.7,7,6.7,7,6.7c0.7,6.7,1,23.5,1,23.5c-5.3-10.7-6.9-13-6.9-13
				C263.3,415,262.4,405.5,262.4,405.5z"/>
			<path class="st3" d="M254.2,428.6c1.9,2.2,8.1,9.2,8.1,9.2c2.9,8.7,5.9,14.1,5.9,14.1s-0.4-5.4-0.4-6.5c0-0.6-3.4-16.4-3.4-16.4
				c5.9,10.8,8.2,16.5,8.2,16.5l0.7,10.2c4.3,10.8,8.1,18,8.1,18c-11.1-13.2-19.6-24.9-19.1-25.4c0.6-0.8-2.3-7.3-2.7-8.6
				S254.2,428.6,254.2,428.6z"/>
			<path class="st3" d="M272.2,411.6c2.5,1.9,9.3,7.8,9.9,7.2c0.5-0.6-0.1-1.2-0.1-1.2c0.8-0.1,4.3,0.5,4.3,0.5v17.4
				c-3.5-11.9-4.7-12.7-4.7-12.7c-4.4-1.5-5.2-2.2-5.2-2.2s1.8,3.4,1.8,3.7s0.2,5.2,0.2,5.2c1.8-1,2-1.4,2-1.4l2.5,6.9
				c-0.2,3.3,0.4,5.9,0.4,5.9l-8.2-8.2c0-4.9-2.1-8.9-2.2-10.9C272.9,419.5,272.2,411.4,272.2,411.6z"/>
			<path class="st3" d="M275.7,437.2c2.2,4.1,4.7,8.6,4.7,8.6c1.2,5.7,3.9,12.8,3.9,12.8c0-2.1-0.3-11-0.3-11c0.7-1,2.9-5.8,2.9-5.8
				s1.3,16.6,1.6,18.1c0.3,1.5,0,7.2,3.1,15.1c0.7,1.9,1.2,4,1.2,4l-3.2-1.6c-0.7-3.2-4-5.8-4.6-7.8s-7.7-17.7-7.3-19.4
				C278,448.5,275.7,437.2,275.7,437.2z"/>
			<path class="st3" d="M289.4,419.1c0.9,1.2,5,4,5,4c-1.1,1.8,0,12.6,0,12.6c2.2-4.9,5.8-13.1,5.8-13.1c0.7,3,3.8,5.9,3.8,5.9
				c0.5,0.6,0.9,16.2,1.4,27.4c-5.2-6.8-6.1-8-6.1-8c-0.3-11.2-0.2-12.3-0.2-12.3c-2,3.5-2.2,5-2.2,5l0.1,14.2
				c-4.7-7.9-6.2-10.7-6.2-10.7c0.3-5.6,0-11.1-0.7-12.5C289.8,431.1,289.4,419.1,289.4,419.1z"/>
			<path class="st3" d="M290.8,448.5c2.1,8.5,6.6,11.6,6.6,11.6l0.5,22.8c-2-7.9-4.2-11.3-4.4-13c-0.2-1.9-1.3-11.2-1.4-11.9
				C292,457.5,290.8,448.5,290.8,448.5z"/>
			<path class="st3" d="M299.7,451.8c1,5.1,0,5.2,1.9,10.8c0.6,1.8,1.2,6.3,1.4,9.5c0.2,3.1,1.9,11.5,1.9,11.5l0.4-22.4
				C301,454.5,299.7,451.8,299.7,451.8z"/>
			<path class="st3" d="M308.9,454.9c0,0-1-27.8,0-29s10.8-4.4,12.1-5.3c1.3-0.9,2.9-2.9,2.9-2.9c-1.3,12.3-1.9,21.8-1.9,21.8
				c-2.8,7.6-5.8,11.7-5.8,11.7c1.3-17.7,2.1-23.4,2.1-23.4c-4.6,2-4.7,3.4-4.7,3.4c-0.3,9.4-0.5,13.3-0.7,14.4
				C312.6,446.6,308.9,454.9,308.9,454.9z"/>
			<path class="st3" d="M311.6,453.3c0,0.9-2.8,7-2.8,7c0.1,3.2,0.2,15.4,0.2,15.4c1.5,3.5,1.8,7.9,1.8,7.9
				c4.8-12.7,8.9-29.4,8.9-29.4l0.3-5.6c-4.4,6.6-4.5,6.1-4.4,6.6c0.1,0.8-3.2,12.9-3.2,12.9C310.2,465.2,311.6,453.3,311.6,453.3z"
				/>
			<path class="st3" d="M327.9,417.7c3.8,0,7.7-2.4,7.7-2.4l-2.2,7.9c6.8-7,11.4-13.4,11.4-13.4c-0.2,3.6,0,5,0,5
				c14.9-15.8,14.3-15.4,14.3-15.4c-1,14.4-4.4,17.5-4.7,20.4c-0.2,2-0.3,3.7-1.7,5.9s-4.6,7.7-5.5,9.2c-0.8,1.3-6.6,7.3-6.6,7.3
				c5.5-15,6.8-21.5,6.8-21.5c-13,19.8-15.2,23.5-15.2,23.5c2.5-12.8,4.7-17.7,4.7-17.7c-7.8,9.1-7.5,10.6-7.5,10.6
				c0.5,3.6-0.7,4.8-1.8,6.4s-5,8.9-5,8.9c1-3.8,5-24.7,4.6-29.8L327.9,417.7z"/>
			<path class="st3" d="M320.9,456.3c2.6-2.3,6.7-8.9,6.7-8.9s-1.3,7.9-1.3,8.8s-6.6,19.3-6.6,19.3
				C321.3,458.9,320.9,456.3,320.9,456.3z"/>
			<path class="st3" d="M329.1,454c2.2-3.8,8.1-13.1,8.1-13.1c-2.3,12.1-1.6,12.2-3.1,14c-1.6,1.9-5.7,12.2-5.7,12.2
				C328.7,458.6,329.1,454,329.1,454z"/>
			<path class="st3" d="M337.9,447.5c-0.3,5.3-1.7,14.8-1.7,14.8c7.4-14.4,7.8-15.5,7.8-15.5c-1.5-0.1,2.2-7.8,2.2-7.8
				C339.4,446.2,337.9,447.5,337.9,447.5z"/>
		</g>
	</g>
</g>
</svg>
